<svg width="348" height="348" viewBox="0 0 348 348" fill="none" xmlns="http://www.w3.org/2000/svg">
<path d="M147.148 157.148H113.305V152.555C113.305 147.43 114.336 142.898 116.398 138.961C118.461 134.961 122.805 129.898 129.43 123.773L135.43 118.336C138.992 115.086 141.586 112.023 143.211 109.148C144.898 106.273 145.742 103.398 145.742 100.523C145.742 96.1484 144.242 92.7422 141.242 90.3047C138.242 87.8047 134.055 86.5547 128.68 86.5547C123.617 86.5547 118.148 87.6172 112.273 89.7422C106.398 91.8047 100.273 94.8984 93.8984 99.0234V69.5859C101.461 66.9609 108.367 65.0234 114.617 63.7734C120.867 62.5234 126.898 61.8984 132.711 61.8984C147.961 61.8984 159.586 65.0234 167.586 71.2734C175.586 77.4609 179.586 86.5234 179.586 98.4609C179.586 104.586 178.367 110.086 175.93 114.961C173.492 119.773 169.336 124.961 163.461 130.523L157.461 135.867C153.211 139.742 150.43 142.867 149.117 145.242C147.805 147.555 147.148 150.117 147.148 152.93V157.148ZM113.305 171.023H147.148V204.398H113.305V171.023Z" fill="#FF000F" fill-opacity="0.62"/>
<path fill-rule="evenodd" clip-rule="evenodd" d="M37.7953 132.283C37.7953 80.0991 80.0991 37.7953 132.283 37.7953C184.468 37.7953 226.772 80.0991 226.772 132.283C226.772 184.468 184.468 226.772 132.283 226.772C80.0991 226.772 37.7953 184.468 37.7953 132.283ZM132.283 0C59.2253 0 0 59.2253 0 132.283C0 205.342 59.2253 264.567 132.283 264.567C156.249 264.567 178.726 258.194 198.112 247.05L297.35 342.101L346.621 290.66L248.084 196.281C258.587 177.316 264.567 155.498 264.567 132.283C264.567 59.2253 205.342 0 132.283 0Z" fill="url(#paint0_linear_121_428)"/>
<defs>
<linearGradient id="paint0_linear_121_428" x1="492.898" y1="170.898" x2="-71.6015" y2="155.398" gradientUnits="userSpaceOnUse">
<stop stop-color="#FE3C3C"/>
<stop offset="1" stop-color="#961212"/>
</linearGradient>
</defs>
</svg>
