<svg width="502" height="414" viewBox="0 0 502 414" fill="none" xmlns="http://www.w3.org/2000/svg">
<path d="M255.174 143.302C268.041 136.646 282.697 134.27 297.008 136.522C311.319 138.774 324.537 145.535 334.738 155.822C344.94 166.108 351.591 179.382 353.724 193.711C355.856 208.04 353.359 222.676 346.596 235.488" stroke="#888888" stroke-width="18.8976"/>
<path fill-rule="evenodd" clip-rule="evenodd" d="M192.457 203.725C192.457 151.54 234.761 109.237 286.946 109.237C339.13 109.237 381.434 151.54 381.434 203.725C381.434 255.909 339.13 298.213 286.946 298.213C234.761 298.213 192.457 255.909 192.457 203.725ZM286.946 71.4414C213.887 71.4414 154.662 130.667 154.662 203.725C154.662 276.783 213.887 336.008 286.946 336.008C310.911 336.008 333.388 329.635 352.774 318.492L452.013 413.543L501.283 362.102L402.746 267.722C413.249 248.757 419.229 226.939 419.229 203.725C419.229 130.667 360.004 71.4414 286.946 71.4414Z" fill="#888888"/>
</svg>
