<svg width="469" height="192" viewBox="0 0 469 192" fill="none" xmlns="http://www.w3.org/2000/svg">
<path d="M220.24 137.008C220.24 139.653 220.069 142.043 219.728 144.176H165.84C166.267 149.808 168.357 154.331 172.112 157.744C175.867 161.157 180.475 162.864 185.936 162.864C193.787 162.864 199.333 159.579 202.576 153.008H218.32C216.187 159.493 212.304 164.827 206.672 169.008C201.125 173.104 194.213 175.152 185.936 175.152C179.195 175.152 173.136 173.659 167.76 170.672C162.469 167.6 158.288 163.333 155.216 157.872C152.229 152.325 150.736 145.925 150.736 138.672C150.736 131.419 152.187 125.061 155.088 119.6C158.075 114.053 162.213 109.787 167.504 106.8C172.88 103.813 179.024 102.32 185.936 102.32C192.592 102.32 198.523 103.771 203.728 106.672C208.933 109.573 212.987 113.669 215.888 118.96C218.789 124.165 220.24 130.181 220.24 137.008ZM205.008 132.4C204.923 127.024 203.003 122.715 199.248 119.472C195.493 116.229 190.843 114.608 185.296 114.608C180.261 114.608 175.952 116.229 172.368 119.472C168.784 122.629 166.651 126.939 165.968 132.4H205.008ZM249.192 79.28V174H234.6V79.28H249.192ZM332.222 103.472V174H317.63V165.68C315.326 168.581 312.297 170.885 308.542 172.592C304.873 174.213 300.947 175.024 296.766 175.024C291.219 175.024 286.227 173.872 281.79 171.568C277.438 169.264 273.982 165.851 271.422 161.328C268.947 156.805 267.71 151.344 267.71 144.944V103.472H282.174V142.768C282.174 149.083 283.753 153.947 286.91 157.36C290.067 160.688 294.377 162.352 299.838 162.352C305.299 162.352 309.609 160.688 312.766 157.36C316.009 153.947 317.63 149.083 317.63 142.768V103.472H332.222ZM358.899 94.128C356.254 94.128 354.035 93.232 352.243 91.44C350.451 89.648 349.555 87.4293 349.555 84.784C349.555 82.1387 350.451 79.92 352.243 78.128C354.035 76.336 356.254 75.44 358.899 75.44C361.459 75.44 363.635 76.336 365.427 78.128C367.219 79.92 368.115 82.1387 368.115 84.784C368.115 87.4293 367.219 89.648 365.427 91.44C363.635 93.232 361.459 94.128 358.899 94.128ZM366.067 103.472V174H351.475V103.472H366.067ZM380.361 138.416C380.361 131.333 381.812 125.061 384.713 119.6C387.7 114.139 391.71 109.915 396.745 106.928C401.865 103.856 407.497 102.32 413.641 102.32C419.188 102.32 424.009 103.429 428.105 105.648C432.286 107.781 435.614 110.469 438.089 113.712V103.472H452.809V174H438.089V163.504C435.614 166.832 432.244 169.605 427.977 171.824C423.71 174.043 418.846 175.152 413.385 175.152C407.326 175.152 401.78 173.616 396.745 170.544C391.71 167.387 387.7 163.035 384.713 157.488C381.812 151.856 380.361 145.499 380.361 138.416ZM438.089 138.672C438.089 133.808 437.065 129.584 435.017 126C433.054 122.416 430.452 119.685 427.209 117.808C423.966 115.931 420.468 114.992 416.713 114.992C412.958 114.992 409.46 115.931 406.217 117.808C402.974 119.6 400.329 122.288 398.281 125.872C396.318 129.371 395.337 133.552 395.337 138.416C395.337 143.28 396.318 147.547 398.281 151.216C400.329 154.885 402.974 157.701 406.217 159.664C409.545 161.541 413.044 162.48 416.713 162.48C420.468 162.48 423.966 161.541 427.209 159.664C430.452 157.787 433.054 155.056 435.017 151.472C437.065 147.803 438.089 143.536 438.089 138.672Z" fill="#888888"/>
<circle cx="359.122" cy="85.1214" r="10" transform="rotate(-41.9114 359.122 85.1214)" fill="url(#paint0_linear_145_492)"/>
<path d="M69.4844 160.924L104.609 176.182C104.78 176.182 104.934 176.077 104.996 175.918L168 14.75H144.385C131.761 14.75 120.477 22.598 116.124 34.406L69.4844 160.924Z" fill="url(#paint1_linear_145_492)"/>
<path d="M0 15.3945H17.9087H24.2523C36.8426 15.3945 48.1034 23.2007 52.4812 34.9633L105.037 176.175H81.6582C69.1275 176.175 57.9067 168.442 53.4861 156.759L0 15.3945Z" fill="url(#paint2_linear_145_492)"/>
<path d="M301.592 60.336C299.352 60.336 297.336 59.952 295.544 59.184C293.752 58.384 292.344 57.264 291.32 55.824C290.296 54.384 289.784 52.704 289.784 50.784H295.64C295.768 52.224 296.328 53.408 297.32 54.336C298.344 55.264 299.768 55.728 301.592 55.728C303.48 55.728 304.952 55.28 306.008 54.384C307.064 53.456 307.592 52.272 307.592 50.832C307.592 49.712 307.256 48.8 306.584 48.096C305.944 47.392 305.128 46.848 304.136 46.464C303.176 46.08 301.832 45.664 300.104 45.216C297.928 44.64 296.152 44.064 294.776 43.488C293.432 42.88 292.28 41.952 291.32 40.704C290.36 39.456 289.88 37.792 289.88 35.712C289.88 33.792 290.36 32.112 291.32 30.672C292.28 29.232 293.624 28.128 295.352 27.36C297.08 26.592 299.08 26.208 301.352 26.208C304.584 26.208 307.224 27.024 309.272 28.656C311.352 30.256 312.504 32.464 312.728 35.28H306.68C306.584 34.064 306.008 33.024 304.952 32.16C303.896 31.296 302.504 30.864 300.776 30.864C299.208 30.864 297.928 31.264 296.936 32.064C295.944 32.864 295.448 34.016 295.448 35.52C295.448 36.544 295.752 37.392 296.36 38.064C297 38.704 297.8 39.216 298.76 39.6C299.72 39.984 301.032 40.4 302.696 40.848C304.904 41.456 306.696 42.064 308.072 42.672C309.48 43.28 310.664 44.224 311.624 45.504C312.616 46.752 313.112 48.432 313.112 50.544C313.112 52.24 312.648 53.84 311.72 55.344C310.824 56.848 309.496 58.064 307.736 58.992C306.008 59.888 303.96 60.336 301.592 60.336ZM343.809 46.128C343.809 47.12 343.745 48.016 343.617 48.816H323.409C323.569 50.928 324.353 52.624 325.761 53.904C327.169 55.184 328.897 55.824 330.945 55.824C333.889 55.824 335.969 54.592 337.185 52.128H343.089C342.289 54.56 340.833 56.56 338.721 58.128C336.641 59.664 334.049 60.432 330.945 60.432C328.417 60.432 326.145 59.872 324.129 58.752C322.145 57.6 320.577 56 319.425 53.952C318.305 51.872 317.745 49.472 317.745 46.752C317.745 44.032 318.289 41.648 319.377 39.6C320.497 37.52 322.049 35.92 324.033 34.8C326.049 33.68 328.353 33.12 330.945 33.12C333.441 33.12 335.665 33.664 337.617 34.752C339.569 35.84 341.089 37.376 342.177 39.36C343.265 41.312 343.809 43.568 343.809 46.128ZM338.097 44.4C338.065 42.384 337.345 40.768 335.937 39.552C334.529 38.336 332.785 37.728 330.705 37.728C328.817 37.728 327.201 38.336 325.857 39.552C324.513 40.736 323.713 42.352 323.457 44.4H338.097ZM347.37 46.656C347.37 44 347.914 41.648 349.002 39.6C350.122 37.552 351.626 35.968 353.514 34.848C355.434 33.696 357.546 33.12 359.85 33.12C361.93 33.12 363.738 33.536 365.274 34.368C366.842 35.168 368.09 36.176 369.018 37.392V33.552H374.538V60H369.018V56.064C368.09 57.312 366.826 58.352 365.226 59.184C363.626 60.016 361.802 60.432 359.754 60.432C357.482 60.432 355.402 59.856 353.514 58.704C351.626 57.52 350.122 55.888 349.002 53.808C347.914 51.696 347.37 49.312 347.37 46.656ZM369.018 46.752C369.018 44.928 368.634 43.344 367.866 42C367.13 40.656 366.154 39.632 364.938 38.928C363.722 38.224 362.41 37.872 361.002 37.872C359.594 37.872 358.282 38.224 357.066 38.928C355.85 39.6 354.858 40.608 354.09 41.952C353.354 43.264 352.986 44.832 352.986 46.656C352.986 48.48 353.354 50.08 354.09 51.456C354.858 52.832 355.85 53.888 357.066 54.624C358.314 55.328 359.626 55.68 361.002 55.68C362.41 55.68 363.722 55.328 364.938 54.624C366.154 53.92 367.13 52.896 367.866 51.552C368.634 50.176 369.018 48.576 369.018 46.752ZM387.197 37.392C387.997 36.048 389.053 35.008 390.365 34.272C391.709 33.504 393.293 33.12 395.117 33.12V38.784H393.725C391.581 38.784 389.949 39.328 388.829 40.416C387.741 41.504 387.197 43.392 387.197 46.08V60H381.725V33.552H387.197V37.392ZM398.323 46.752C398.323 44.032 398.867 41.648 399.955 39.6C401.075 37.52 402.611 35.92 404.563 34.8C406.515 33.68 408.755 33.12 411.283 33.12C414.483 33.12 417.123 33.888 419.203 35.424C421.315 36.928 422.739 39.088 423.475 41.904H417.571C417.091 40.592 416.323 39.568 415.267 38.832C414.211 38.096 412.883 37.728 411.283 37.728C409.043 37.728 407.251 38.528 405.907 40.128C404.595 41.696 403.939 43.904 403.939 46.752C403.939 49.6 404.595 51.824 405.907 53.424C407.251 55.024 409.043 55.824 411.283 55.824C414.451 55.824 416.547 54.432 417.571 51.648H423.475C422.707 54.336 421.267 56.48 419.155 58.08C417.043 59.648 414.419 60.432 411.283 60.432C408.755 60.432 406.515 59.872 404.563 58.752C402.611 57.6 401.075 56 399.955 53.952C398.867 51.872 398.323 49.472 398.323 46.752ZM442.608 33.12C444.624 33.12 446.416 33.552 447.984 34.416C449.584 35.28 450.832 36.56 451.728 38.256C452.656 39.952 453.12 42 453.12 44.4V60H447.696V45.216C447.696 42.848 447.104 41.04 445.92 39.792C444.736 38.512 443.12 37.872 441.072 37.872C439.024 37.872 437.392 38.512 436.176 39.792C434.992 41.04 434.4 42.848 434.4 45.216V60H428.928V24.48H434.4V36.624C435.328 35.504 436.496 34.64 437.904 34.032C439.344 33.424 440.912 33.12 442.608 33.12Z" fill="#888888"/>
<defs>
<linearGradient id="paint0_linear_145_492" x1="359.122" y1="78.1214" x2="359.122" y2="93.1214" gradientUnits="userSpaceOnUse">
<stop stop-color="#FEA3C1"/>
<stop offset="1" stop-color="#7D01FD"/>
</linearGradient>
<linearGradient id="paint1_linear_145_492" x1="95.8441" y1="172.99" x2="162.261" y2="8.3854" gradientUnits="userSpaceOnUse">
<stop stop-color="#7000FF"/>
<stop offset="1" stop-color="#CC00ED"/>
</linearGradient>
<linearGradient id="paint2_linear_145_492" x1="28.8308" y1="7.69695" x2="75.8911" y2="183.957" gradientUnits="userSpaceOnUse">
<stop stop-color="#FFE194"/>
<stop offset="1" stop-color="#FB4BFF"/>
</linearGradient>
</defs>
</svg>
