<svg width="347" height="343" viewBox="0 0 347 343" fill="none" xmlns="http://www.w3.org/2000/svg">
<path d="M100.512 71.861C113.379 65.2044 128.035 62.829 142.346 65.0808C156.657 67.3326 169.875 74.094 180.076 84.3803C190.278 94.6666 196.929 107.941 199.062 122.27C201.194 136.599 198.697 151.235 191.934 164.046" stroke="#888888" stroke-width="18.8976"/>
<path fill-rule="evenodd" clip-rule="evenodd" d="M37.7953 132.283C37.7953 80.0991 80.0991 37.7953 132.283 37.7953C184.468 37.7953 226.772 80.0991 226.772 132.283C226.772 184.468 184.468 226.772 132.283 226.772C80.0991 226.772 37.7953 184.468 37.7953 132.283ZM132.283 0C59.2253 0 0 59.2253 0 132.283C0 205.342 59.2253 264.567 132.283 264.567C156.249 264.567 178.726 258.194 198.112 247.05L297.35 342.101L346.621 290.66L248.084 196.281C258.587 177.316 264.567 155.498 264.567 132.283C264.567 59.2253 205.342 0 132.283 0Z" fill="#888888"/>
</svg>
